<mxfile host="Electron" modified="2023-11-27T14:25:15.183Z" agent="Mozilla/5.0 (Windows NT 10.0; Win64; x64) AppleWebKit/537.36 (KHTML, like Gecko) draw.io/22.1.2 Chrome/114.0.5735.289 Electron/25.9.4 Safari/537.36" etag="_RTGhPdLszmd9CO5IJ9k" version="22.1.2" type="device">
  <diagram id="C5RBs43oDa-KdzZeNtuy" name="Page-1">
    <mxGraphModel dx="1500" dy="899" grid="1" gridSize="10" guides="1" tooltips="1" connect="1" arrows="1" fold="1" page="1" pageScale="1" pageWidth="827" pageHeight="1169" math="0" shadow="0">
      <root>
        <mxCell id="WIyWlLk6GJQsqaUBKTNV-0" />
        <mxCell id="WIyWlLk6GJQsqaUBKTNV-1" parent="WIyWlLk6GJQsqaUBKTNV-0" />
        <mxCell id="mhg5cwjR2UjGopZPOrk6-1" value="" style="endArrow=none;html=1;rounded=0;" edge="1" parent="WIyWlLk6GJQsqaUBKTNV-1">
          <mxGeometry width="50" height="50" relative="1" as="geometry">
            <mxPoint x="424" y="230" as="sourcePoint" />
            <mxPoint x="464" y="190" as="targetPoint" />
          </mxGeometry>
        </mxCell>
        <mxCell id="mhg5cwjR2UjGopZPOrk6-2" value="" style="endArrow=none;html=1;rounded=0;" edge="1" parent="WIyWlLk6GJQsqaUBKTNV-1">
          <mxGeometry width="50" height="50" relative="1" as="geometry">
            <mxPoint x="504" y="230" as="sourcePoint" />
            <mxPoint x="464" y="190" as="targetPoint" />
          </mxGeometry>
        </mxCell>
        <mxCell id="mhg5cwjR2UjGopZPOrk6-3" value="" style="endArrow=none;html=1;rounded=0;" edge="1" parent="WIyWlLk6GJQsqaUBKTNV-1">
          <mxGeometry width="50" height="50" relative="1" as="geometry">
            <mxPoint x="464" y="140" as="sourcePoint" />
            <mxPoint x="464" y="190" as="targetPoint" />
          </mxGeometry>
        </mxCell>
        <mxCell id="mhg5cwjR2UjGopZPOrk6-4" value="" style="endArrow=none;html=1;rounded=0;" edge="1" parent="WIyWlLk6GJQsqaUBKTNV-1">
          <mxGeometry width="50" height="50" relative="1" as="geometry">
            <mxPoint x="424" y="150" as="sourcePoint" />
            <mxPoint x="504" y="150" as="targetPoint" />
          </mxGeometry>
        </mxCell>
        <mxCell id="mhg5cwjR2UjGopZPOrk6-5" value="" style="ellipse;whiteSpace=wrap;html=1;aspect=fixed;" vertex="1" parent="WIyWlLk6GJQsqaUBKTNV-1">
          <mxGeometry x="424" y="60" width="80" height="80" as="geometry" />
        </mxCell>
        <mxCell id="mhg5cwjR2UjGopZPOrk6-6" value="Client" style="text;html=1;strokeColor=none;fillColor=none;align=center;verticalAlign=middle;whiteSpace=wrap;rounded=0;" vertex="1" parent="WIyWlLk6GJQsqaUBKTNV-1">
          <mxGeometry x="434" y="20" width="60" height="30" as="geometry" />
        </mxCell>
        <mxCell id="mhg5cwjR2UjGopZPOrk6-7" value="" style="ellipse;whiteSpace=wrap;html=1;" vertex="1" parent="WIyWlLk6GJQsqaUBKTNV-1">
          <mxGeometry x="404" y="320" width="180" height="80" as="geometry" />
        </mxCell>
        <mxCell id="mhg5cwjR2UjGopZPOrk6-8" value="Отменить заказ" style="text;html=1;strokeColor=none;fillColor=none;align=center;verticalAlign=middle;whiteSpace=wrap;rounded=0;" vertex="1" parent="WIyWlLk6GJQsqaUBKTNV-1">
          <mxGeometry x="419" y="345" width="150" height="30" as="geometry" />
        </mxCell>
        <mxCell id="mhg5cwjR2UjGopZPOrk6-9" value="" style="ellipse;whiteSpace=wrap;html=1;" vertex="1" parent="WIyWlLk6GJQsqaUBKTNV-1">
          <mxGeometry x="614" y="260" width="170" height="80" as="geometry" />
        </mxCell>
        <mxCell id="mhg5cwjR2UjGopZPOrk6-10" value="Посмотреть список билетов" style="text;html=1;strokeColor=none;fillColor=none;align=center;verticalAlign=middle;whiteSpace=wrap;rounded=0;" vertex="1" parent="WIyWlLk6GJQsqaUBKTNV-1">
          <mxGeometry x="639" y="285" width="120" height="30" as="geometry" />
        </mxCell>
        <mxCell id="mhg5cwjR2UjGopZPOrk6-11" value="" style="ellipse;whiteSpace=wrap;html=1;" vertex="1" parent="WIyWlLk6GJQsqaUBKTNV-1">
          <mxGeometry x="194" y="295" width="190" height="80" as="geometry" />
        </mxCell>
        <mxCell id="mhg5cwjR2UjGopZPOrk6-12" value="Заказать билет" style="text;html=1;strokeColor=none;fillColor=none;align=center;verticalAlign=middle;whiteSpace=wrap;rounded=0;" vertex="1" parent="WIyWlLk6GJQsqaUBKTNV-1">
          <mxGeometry x="219" y="320" width="140" height="30" as="geometry" />
        </mxCell>
        <mxCell id="mhg5cwjR2UjGopZPOrk6-13" value="" style="endArrow=none;html=1;rounded=0;" edge="1" parent="WIyWlLk6GJQsqaUBKTNV-1" target="mhg5cwjR2UjGopZPOrk6-7">
          <mxGeometry width="50" height="50" relative="1" as="geometry">
            <mxPoint x="464" y="210" as="sourcePoint" />
            <mxPoint x="584" y="190" as="targetPoint" />
          </mxGeometry>
        </mxCell>
        <mxCell id="mhg5cwjR2UjGopZPOrk6-14" value="" style="endArrow=none;html=1;rounded=0;entryX=0;entryY=0;entryDx=0;entryDy=0;" edge="1" parent="WIyWlLk6GJQsqaUBKTNV-1" target="mhg5cwjR2UjGopZPOrk6-9">
          <mxGeometry width="50" height="50" relative="1" as="geometry">
            <mxPoint x="494" y="200" as="sourcePoint" />
            <mxPoint x="584" y="190" as="targetPoint" />
          </mxGeometry>
        </mxCell>
        <mxCell id="mhg5cwjR2UjGopZPOrk6-15" value="" style="endArrow=none;html=1;rounded=0;exitX=0.5;exitY=0;exitDx=0;exitDy=0;" edge="1" parent="WIyWlLk6GJQsqaUBKTNV-1" source="mhg5cwjR2UjGopZPOrk6-11">
          <mxGeometry width="50" height="50" relative="1" as="geometry">
            <mxPoint x="534" y="240" as="sourcePoint" />
            <mxPoint x="424" y="200" as="targetPoint" />
          </mxGeometry>
        </mxCell>
        <mxCell id="mhg5cwjR2UjGopZPOrk6-16" value="" style="ellipse;whiteSpace=wrap;html=1;" vertex="1" parent="WIyWlLk6GJQsqaUBKTNV-1">
          <mxGeometry x="284" y="455" width="200" height="80" as="geometry" />
        </mxCell>
        <mxCell id="mhg5cwjR2UjGopZPOrk6-17" value="Указать наличие и вес багажа" style="text;html=1;strokeColor=none;fillColor=none;align=center;verticalAlign=middle;whiteSpace=wrap;rounded=0;" vertex="1" parent="WIyWlLk6GJQsqaUBKTNV-1">
          <mxGeometry x="309" y="480" width="150" height="30" as="geometry" />
        </mxCell>
        <mxCell id="mhg5cwjR2UjGopZPOrk6-18" value="" style="ellipse;whiteSpace=wrap;html=1;" vertex="1" parent="WIyWlLk6GJQsqaUBKTNV-1">
          <mxGeometry x="44" y="455" width="200" height="80" as="geometry" />
        </mxCell>
        <mxCell id="mhg5cwjR2UjGopZPOrk6-19" value="Указать право на внеочередное обслуживание" style="text;html=1;strokeColor=none;fillColor=none;align=center;verticalAlign=middle;whiteSpace=wrap;rounded=0;" vertex="1" parent="WIyWlLk6GJQsqaUBKTNV-1">
          <mxGeometry x="59" y="480" width="170" height="30" as="geometry" />
        </mxCell>
        <mxCell id="mhg5cwjR2UjGopZPOrk6-20" value="" style="endArrow=classic;html=1;rounded=0;entryX=0.178;entryY=0.948;entryDx=0;entryDy=0;entryPerimeter=0;" edge="1" parent="WIyWlLk6GJQsqaUBKTNV-1" target="mhg5cwjR2UjGopZPOrk6-11">
          <mxGeometry width="50" height="50" relative="1" as="geometry">
            <mxPoint x="144" y="455" as="sourcePoint" />
            <mxPoint x="224" y="372" as="targetPoint" />
          </mxGeometry>
        </mxCell>
        <mxCell id="mhg5cwjR2UjGopZPOrk6-21" value="&amp;lt;&amp;lt;Extend&amp;gt;&amp;gt;" style="text;html=1;strokeColor=none;fillColor=none;align=center;verticalAlign=middle;whiteSpace=wrap;rounded=0;" vertex="1" parent="WIyWlLk6GJQsqaUBKTNV-1">
          <mxGeometry x="114" y="390" width="60" height="30" as="geometry" />
        </mxCell>
        <mxCell id="mhg5cwjR2UjGopZPOrk6-22" value="" style="endArrow=classic;html=1;rounded=0;entryX=0.299;entryY=0.038;entryDx=0;entryDy=0;entryPerimeter=0;exitX=0.628;exitY=0.988;exitDx=0;exitDy=0;exitPerimeter=0;" edge="1" parent="WIyWlLk6GJQsqaUBKTNV-1" source="mhg5cwjR2UjGopZPOrk6-11" target="mhg5cwjR2UjGopZPOrk6-16">
          <mxGeometry width="50" height="50" relative="1" as="geometry">
            <mxPoint x="534" y="440" as="sourcePoint" />
            <mxPoint x="584" y="390" as="targetPoint" />
          </mxGeometry>
        </mxCell>
        <mxCell id="mhg5cwjR2UjGopZPOrk6-23" value="&amp;lt;&amp;lt;Include&amp;gt;&amp;gt;" style="text;html=1;strokeColor=none;fillColor=none;align=center;verticalAlign=middle;whiteSpace=wrap;rounded=0;" vertex="1" parent="WIyWlLk6GJQsqaUBKTNV-1">
          <mxGeometry x="334" y="390" width="60" height="30" as="geometry" />
        </mxCell>
      </root>
    </mxGraphModel>
  </diagram>
</mxfile>
